<svg width="27" height="27" viewBox="0 0 27 27" fill="none" xmlns="http://www.w3.org/2000/svg">
<g id="system-uicons:location">
<g id="Group">
<path id="Vector" fill-rule="evenodd" clip-rule="evenodd" d="M13.5 23.8372L14.3113 22.923C15.2319 21.8696 16.0603 20.8672 16.7966 19.9157L17.4047 19.1134C19.9444 15.6926 21.2143 12.9784 21.2143 10.971C21.2143 6.68701 17.7609 3.21429 13.5 3.21429C9.23915 3.21429 5.78572 6.68701 5.78572 10.971C5.78572 12.9784 7.05558 15.693 9.59529 19.1147L10.2034 19.917C11.2546 21.2635 12.3541 22.5703 13.5 23.8372Z" stroke="black" stroke-linecap="round" stroke-linejoin="round"/>
<path id="Vector_2" d="M13.5 14.1429C15.2752 14.1429 16.7143 12.7038 16.7143 10.9286C16.7143 9.15338 15.2752 7.71429 13.5 7.71429C11.7248 7.71429 10.2857 9.15338 10.2857 10.9286C10.2857 12.7038 11.7248 14.1429 13.5 14.1429Z" stroke="black" stroke-linecap="round" stroke-linejoin="round"/>
</g>
</g>
</svg>
