<svg width="26" height="26" viewBox="0 0 26 26" fill="none" xmlns="http://www.w3.org/2000/svg">
<path id="Vector" d="M24.8796 26L14.9417 16.0634C14.1482 16.7393 13.2357 17.2625 12.2041 17.6327C11.1726 18.003 10.1357 18.1881 9.09357 18.1881C6.55224 18.1881 4.40131 17.3085 2.64079 15.5492C0.880262 13.79 0 11.6398 0 9.09881C0 6.55779 0.879204 4.40659 2.63761 2.64523C4.39602 0.883861 6.54589 0.00211956 9.08723 3.80532e-06C11.6286 -0.00211195 13.7805 0.878043 15.5432 2.64047C17.3058 4.40289 18.1871 6.55409 18.1871 9.09405C18.1871 10.1964 17.9919 11.2632 17.6015 12.2947C17.2111 13.3261 16.698 14.2084 16.0621 14.9415L26 24.8765L24.8796 26ZM9.09516 16.5997C11.2006 16.5997 12.978 15.8751 14.4275 14.4258C15.877 12.9765 16.6017 11.1987 16.6017 9.09246C16.6017 6.98623 15.877 5.20899 14.4275 3.76076C12.978 2.31252 11.2006 1.58788 9.09516 1.58682C6.98972 1.58576 5.21174 2.31041 3.76122 3.76076C2.31069 5.21111 1.58595 6.98835 1.58701 9.09246C1.58807 11.1966 2.3128 12.9738 3.76122 14.4242C5.20963 15.8745 6.98708 16.5992 9.09357 16.5981" fill="black"/>
</svg>
